<?xml version="1.0" encoding="UTF-8" standalone="no"?>
<svg
   xmlns:dc="http://purl.org/dc/elements/1.1/"
   xmlns:cc="http://creativecommons.org/ns#"
   xmlns:rdf="http://www.w3.org/1999/02/22-rdf-syntax-ns#"
   xmlns:svg="http://www.w3.org/2000/svg"
   xmlns="http://www.w3.org/2000/svg"
   viewBox="0 0 1955 247"
   version="1.1"
   id="svg2">
  <g
     id="layer1">
    <path
       id="path4140"
       d="M 0.61555416,103.98798 C 122.16071,166.20744 258.5041,210.93808 430.90989,213.04952 638.32428,218.34824 830.87707,177.12472 1051.5942,108.58652 1224.1744,47.416738 1388.4198,4.8115971 1565.204,0.64141451 1714.5578,2.5057508 1834.725,43.820005 1956.0698,83.776555 l 0,83.135145 C 1845.5396,121.67447 1737.1258,75.055094 1571.2977,65.930792 1345.1139,68.653041 1115.8197,144.47131 887.50028,197.38007 725.42784,234.35159 721.50477,236.23678 524.9266,248.08816 407.47177,247.8835 296.03919,219.60891 201.52654,191.50403 165.59372,181.69479 44.332813,135.13985 0.61555416,103.98798 Z"
       style="fill:#f9f9fb;fill-opacity:1;fill-rule:evenodd;stroke:none;stroke-width:1px;stroke-linecap:butt;stroke-linejoin:miter;stroke-opacity:1" />
  </g>
  <g
     id="layer2">
    <path
       id="path4145"
       d="M 0.10881563,0.10881563 1955.1539,0 1955.263,83.558924 C 1891.4493,63.754479 1827.9168,43.950035 1752.8022,24.14559 1688.5622,8.833546 1626.559,4.1459096 1564.7387,1.0861143 1415.8142,4.9657252 1311.8774,31.43846 1203.8063,59.803264 1061.7011,104.16432 925.54078,160.18582 767.34106,185.23337 558.56967,225.78197 469.339,216.91576 378.01852,213.32481 321.75237,212.55082 179.12838,196.43773 0.10881563,104.05489 Z"
       style="fill:#ffffff;fill-opacity:1;fill-rule:evenodd;stroke:none;stroke-width:1px;stroke-linecap:butt;stroke-linejoin:miter;stroke-opacity:1" />
  </g>
</svg>
