<?xml version="1.0" encoding="UTF-8" standalone="no"?>
<svg
   xmlns:dc="http://purl.org/dc/elements/1.1/"
   xmlns:cc="http://creativecommons.org/ns#"
   xmlns:rdf="http://www.w3.org/1999/02/22-rdf-syntax-ns#"
   xmlns:svg="http://www.w3.org/2000/svg"
   xmlns="http://www.w3.org/2000/svg"
   viewBox="0 0 1920 269"
   version="1.1"
   id="svg2">
  <defs
     id="defs6" />
  <g
     style="display:inline"
     id="layer1">
    <path
       id="path4138"
       d="M 0.60453401,83.40806 C 177.37339,161.86129 244.85189,177.64152 357.91006,182.77389 527.7421,179.21391 631.96397,139.66421 661.21125,131.26671 865.29621,72.669703 1079.251,25.903384 1336.6247,2.4005033 1497.1629,-0.33572389 1641.0894,6.7526772 1801.9647,76.455919 1633.3743,20.516009 1480.288,14.927633 1352.9471,27.790932 1121.5389,49.242712 823.76257,144.44204 593.6747,221.32976 480.45689,259.16339 371.30669,267.52367 290.80411,269.13333 189.5826,265.31534 109.03576,255.6164 0.41488661,221.42562 Z"
       style="fill:#e1e3ea;fill-opacity:1;fill-rule:evenodd;stroke:none;stroke-width:1px;stroke-linecap:butt;stroke-linejoin:miter;stroke-opacity:1" />
  </g>
  <g
     id="layer2">
    <path
       id="path4143"
       d="M 0.14039272,220.48659 C 110.03339,253.59947 195.73027,261.362 283.58083,266.42628 c 114.70452,-3.6024 212.27332,-20.81393 298.38458,-48.0851 13.87419,-4.39391 62.07232,-18.51563 75.69733,-23.00014 65.45687,-22.14073 140.77791,-47.54942 202.25419,-66.17846 106.89126,-32.391058 213.94977,-54.9533 319.38447,-76.440967 117.21,-22.643768 238.9423,-39.173048 360.7665,-28.661977 142.445,7.546661 288.5197,50.298845 380.8941,109.594214 l 0.5354,137.0375 -1921.60741343,-1.80582 z"
       style="fill:#ffffff;fill-opacity:1;fill-rule:evenodd;stroke:none;stroke-width:1px;stroke-linecap:butt;stroke-linejoin:miter;stroke-opacity:1" />
  </g>
</svg>
